<?xml version="1.0" encoding="UTF-8"?>
<svg width="341px" height="341px" viewBox="0 0 341 341" version="1.1" xmlns="http://www.w3.org/2000/svg" xmlns:xlink="http://www.w3.org/1999/xlink">
    <!-- Generator: Sketch 43.2 (39069) - http://www.bohemiancoding.com/sketch -->
    <title>logo</title>
    <desc>Created with Sketch.</desc>
    <defs>
        <rect id="path-1" x="52" y="53" width="250" height="250" rx="16"></rect>
        <rect id="path-2" x="52" y="53" width="250" height="250" rx="16"></rect>
        <rect id="path-3" x="52" y="53" width="250" height="250" rx="16"></rect>
        <rect id="path-4" x="52" y="53" width="250" height="250" rx="16"></rect>
        <rect id="path-5" x="52" y="53" width="250" height="250" rx="16"></rect>
        <rect id="path-6" x="52" y="53" width="250" height="250" rx="16"></rect>
        <rect id="path-7" x="52" y="53" width="250" height="250" rx="16"></rect>
        <rect id="path-8" x="52" y="53" width="250" height="250" rx="16"></rect>
        <rect id="path-9" x="52" y="53" width="250" height="250" rx="16"></rect>
        <rect id="path-10" x="52" y="53" width="250" height="250" rx="16"></rect>
        <rect id="path-11" x="52" y="53" width="250" height="250" rx="16"></rect>
        <rect id="path-12" x="52" y="53" width="250" height="250" rx="16"></rect>
        <rect id="path-13" x="52" y="53" width="250" height="250" rx="16"></rect>
        <rect id="path-14" x="52" y="53" width="250" height="250" rx="16"></rect>
        <rect id="path-15" x="52" y="53" width="250" height="250" rx="16"></rect>
        <rect id="path-16" x="52.1801462" y="52.0761396" width="250" height="250" rx="16"></rect>
        <rect id="path-17" x="52.6123815" y="52.5083749" width="250" height="250" rx="16"></rect>
        <rect id="path-18" x="52.0352626" y="52.931256" width="250" height="250" rx="16"></rect>
        <rect id="path-19" x="52.24592" y="52.1419134" width="250" height="250" rx="16"></rect>
        <rect id="path-20" x="52.1040066" y="52" width="250" height="250" rx="16"></rect>
        <rect id="path-21" x="52.534429" y="52.4304224" width="250" height="250" rx="16"></rect>
        <rect id="path-22" x="52" y="52.8959934" width="250" height="250" rx="16"></rect>
        <rect id="path-23" x="52.1801462" y="52.0761396" width="250" height="250" rx="16"></rect>
        <rect id="path-24" x="52.6123815" y="52.5083749" width="250" height="250" rx="16"></rect>
        <rect id="path-25" x="52.0352626" y="52.931256" width="250" height="250" rx="16"></rect>
        <rect id="path-26" x="52.24592" y="52.1419134" width="250" height="250" rx="16"></rect>
        <rect id="path-27" x="52.1040066" y="52" width="250" height="250" rx="16"></rect>
        <rect id="path-28" x="52.534429" y="52.4304224" width="250" height="250" rx="32"></rect>
    </defs>
    <g id="Page-1" stroke="none" stroke-width="1" fill="none" fill-rule="evenodd">
        <g id="Desktop-Copy-2" transform="translate(-230.000000, -83.000000)">
            <g id="logo" transform="translate(223.000000, 76.000000)">
                <g id="Rectangle">
                    <use fill-opacity="0" fill="#4B4B4B" fill-rule="evenodd" xlink:href="#path-1"></use>
                    <rect stroke="#FFFFFF" stroke-width="1" x="52.5" y="53.5" width="249" height="249" rx="16"></rect>
                </g>
                <g id="Rectangle" transform="translate(177.000000, 178.000000) rotate(8.000000) translate(-177.000000, -178.000000) ">
                    <use fill-opacity="0" fill="#4B4B4B" fill-rule="evenodd" xlink:href="#path-2"></use>
                    <rect stroke="#FFFFFF" stroke-width="1" x="52.5" y="53.5" width="249" height="249" rx="16"></rect>
                </g>
                <g id="Rectangle" transform="translate(177.000000, 178.000000) rotate(16.000000) translate(-177.000000, -178.000000) ">
                    <use fill-opacity="0" fill="#4B4B4B" fill-rule="evenodd" xlink:href="#path-3"></use>
                    <rect stroke="#FFFFFF" stroke-width="1" x="52.5" y="53.5" width="249" height="249" rx="16"></rect>
                </g>
                <g id="Rectangle" transform="translate(177.000000, 178.000000) rotate(24.000000) translate(-177.000000, -178.000000) ">
                    <use fill-opacity="0" fill="#4B4B4B" fill-rule="evenodd" xlink:href="#path-4"></use>
                    <rect stroke="#FFFFFF" stroke-width="1" x="52.5" y="53.5" width="249" height="249" rx="16"></rect>
                </g>
                <g id="Rectangle" transform="translate(177.000000, 178.000000) rotate(32.000000) translate(-177.000000, -178.000000) ">
                    <use fill-opacity="0" fill="#4B4B4B" fill-rule="evenodd" xlink:href="#path-5"></use>
                    <rect stroke="#FFFFFF" stroke-width="1" x="52.5" y="53.5" width="249" height="249" rx="16"></rect>
                </g>
                <g id="Rectangle" transform="translate(177.000000, 178.000000) rotate(40.000000) translate(-177.000000, -178.000000) ">
                    <use fill-opacity="0" fill="#4B4B4B" fill-rule="evenodd" xlink:href="#path-6"></use>
                    <rect stroke="#FFFFFF" stroke-width="1" x="52.5" y="53.5" width="249" height="249" rx="16"></rect>
                </g>
                <g id="Rectangle" transform="translate(177.000000, 178.000000) rotate(48.000000) translate(-177.000000, -178.000000) ">
                    <use fill-opacity="0" fill="#4B4B4B" fill-rule="evenodd" xlink:href="#path-7"></use>
                    <rect stroke="#FFFFFF" stroke-width="1" x="52.5" y="53.5" width="249" height="249" rx="16"></rect>
                </g>
                <g id="Rectangle">
                    <use fill-opacity="0" fill="#4B4B4B" fill-rule="evenodd" xlink:href="#path-8"></use>
                    <rect stroke="#FFFFFF" stroke-width="1" x="52.5" y="53.5" width="249" height="249" rx="16"></rect>
                </g>
                <g id="Rectangle" transform="translate(177.000000, 178.000000) rotate(8.000000) translate(-177.000000, -178.000000) ">
                    <use fill-opacity="0" fill="#4B4B4B" fill-rule="evenodd" xlink:href="#path-9"></use>
                    <rect stroke="#FFFFFF" stroke-width="1" x="52.5" y="53.5" width="249" height="249" rx="16"></rect>
                </g>
                <g id="Rectangle" transform="translate(177.000000, 178.000000) rotate(16.000000) translate(-177.000000, -178.000000) ">
                    <use fill-opacity="0" fill="#4B4B4B" fill-rule="evenodd" xlink:href="#path-10"></use>
                    <rect stroke="#FFFFFF" stroke-width="1" x="52.5" y="53.5" width="249" height="249" rx="16"></rect>
                </g>
                <g id="Rectangle" transform="translate(177.000000, 178.000000) rotate(24.000000) translate(-177.000000, -178.000000) ">
                    <use fill-opacity="0" fill="#4B4B4B" fill-rule="evenodd" xlink:href="#path-11"></use>
                    <rect stroke="#FFFFFF" stroke-width="1" x="52.5" y="53.5" width="249" height="249" rx="16"></rect>
                </g>
                <g id="Rectangle" transform="translate(177.000000, 178.000000) rotate(32.000000) translate(-177.000000, -178.000000) ">
                    <use fill-opacity="0" fill="#4B4B4B" fill-rule="evenodd" xlink:href="#path-12"></use>
                    <rect stroke="#FFFFFF" stroke-width="1" x="52.5" y="53.5" width="249" height="249" rx="16"></rect>
                </g>
                <g id="Rectangle" transform="translate(177.000000, 178.000000) rotate(40.000000) translate(-177.000000, -178.000000) ">
                    <use fill-opacity="0" fill="#4B4B4B" fill-rule="evenodd" xlink:href="#path-13"></use>
                    <rect stroke="#FFFFFF" stroke-width="1" x="52.5" y="53.5" width="249" height="249" rx="16"></rect>
                </g>
                <g id="Rectangle" transform="translate(177.000000, 178.000000) rotate(48.000000) translate(-177.000000, -178.000000) ">
                    <use fill-opacity="0" fill="#4B4B4B" fill-rule="evenodd" xlink:href="#path-14"></use>
                    <rect stroke="#FFFFFF" stroke-width="1" x="52.5" y="53.5" width="249" height="249" rx="16"></rect>
                </g>
                <g id="Rectangle">
                    <use fill-opacity="0" fill="#4B4B4B" fill-rule="evenodd" xlink:href="#path-15"></use>
                    <rect stroke="#FFFFFF" stroke-width="1" x="52.5" y="53.5" width="249" height="249" rx="16"></rect>
                </g>
                <g id="Rectangle" transform="translate(177.180146, 177.076140) rotate(8.000000) translate(-177.180146, -177.076140) ">
                    <use fill-opacity="0" fill="#4B4B4B" fill-rule="evenodd" xlink:href="#path-16"></use>
                    <rect stroke="#FFFFFF" stroke-width="1" x="52.6801462" y="52.5761396" width="249" height="249" rx="16"></rect>
                </g>
                <g id="Rectangle" transform="translate(177.612381, 177.508375) rotate(16.000000) translate(-177.612381, -177.508375) ">
                    <use fill-opacity="0" fill="#4B4B4B" fill-rule="evenodd" xlink:href="#path-17"></use>
                    <rect stroke="#FFFFFF" stroke-width="1" x="53.1123815" y="53.0083749" width="249" height="249" rx="16"></rect>
                </g>
                <g id="Rectangle" transform="translate(177.035263, 177.931256) rotate(24.000000) translate(-177.035263, -177.931256) ">
                    <use fill-opacity="0" fill="#4B4B4B" fill-rule="evenodd" xlink:href="#path-18"></use>
                    <rect stroke="#FFFFFF" stroke-width="1" x="52.5352626" y="53.431256" width="249" height="249" rx="16"></rect>
                </g>
                <g id="Rectangle" transform="translate(177.245920, 177.141913) rotate(32.000000) translate(-177.245920, -177.141913) ">
                    <use fill-opacity="0" fill="#4B4B4B" fill-rule="evenodd" xlink:href="#path-19"></use>
                    <rect stroke="#FFFFFF" stroke-width="1" x="52.74592" y="52.6419134" width="249" height="249" rx="16"></rect>
                </g>
                <g id="Rectangle" transform="translate(177.104007, 177.000000) rotate(40.000000) translate(-177.104007, -177.000000) ">
                    <use fill-opacity="0" fill="#4B4B4B" fill-rule="evenodd" xlink:href="#path-20"></use>
                    <rect stroke="#FFFFFF" stroke-width="1" x="52.6040066" y="52.5" width="249" height="249" rx="16"></rect>
                </g>
                <g id="Rectangle" transform="translate(177.534429, 177.430422) rotate(48.000000) translate(-177.534429, -177.430422) ">
                    <use fill-opacity="0" fill="#4B4B4B" fill-rule="evenodd" xlink:href="#path-21"></use>
                    <rect stroke="#FFFFFF" stroke-width="1" x="53.034429" y="52.9304224" width="249" height="249" rx="16"></rect>
                </g>
                <g id="Rectangle">
                    <use fill-opacity="0" fill="#4B4B4B" fill-rule="evenodd" xlink:href="#path-22"></use>
                    <rect stroke="#FFFFFF" stroke-width="1" x="52.5" y="53.3959934" width="249" height="249" rx="16"></rect>
                </g>
                <g id="Rectangle" transform="translate(177.180146, 177.076140) rotate(8.000000) translate(-177.180146, -177.076140) ">
                    <use fill-opacity="0" fill="#4B4B4B" fill-rule="evenodd" xlink:href="#path-23"></use>
                    <rect stroke="#FFFFFF" stroke-width="1" x="52.6801462" y="52.5761396" width="249" height="249" rx="16"></rect>
                </g>
                <g id="Rectangle" transform="translate(177.612381, 177.508375) rotate(16.000000) translate(-177.612381, -177.508375) ">
                    <use fill-opacity="0" fill="#4B4B4B" fill-rule="evenodd" xlink:href="#path-24"></use>
                    <rect stroke="#FFFFFF" stroke-width="1" x="53.1123815" y="53.0083749" width="249" height="249" rx="16"></rect>
                </g>
                <g id="Rectangle" transform="translate(177.035263, 177.931256) rotate(24.000000) translate(-177.035263, -177.931256) ">
                    <use fill-opacity="0" fill="#4B4B4B" fill-rule="evenodd" xlink:href="#path-25"></use>
                    <rect stroke="#FFFFFF" stroke-width="1" x="52.5352626" y="53.431256" width="249" height="249" rx="16"></rect>
                </g>
                <g id="Rectangle" transform="translate(177.245920, 177.141913) rotate(32.000000) translate(-177.245920, -177.141913) ">
                    <use fill-opacity="0" fill="#4B4B4B" fill-rule="evenodd" xlink:href="#path-26"></use>
                    <rect stroke="#FFFFFF" stroke-width="1" x="52.74592" y="52.6419134" width="249" height="249" rx="16"></rect>
                </g>
                <g id="Rectangle" transform="translate(177.104007, 177.000000) rotate(40.000000) translate(-177.104007, -177.000000) ">
                    <use fill-opacity="0" fill="#4B4B4B" fill-rule="evenodd" xlink:href="#path-27"></use>
                    <rect stroke="#FFFFFF" stroke-width="1" x="52.6040066" y="52.5" width="249" height="249" rx="16"></rect>
                </g>
                <g id="Rectangle" transform="translate(177.534429, 177.430422) rotate(48.000000) translate(-177.534429, -177.430422) ">
                    <use fill-opacity="0" fill="#4B4B4B" fill-rule="evenodd" xlink:href="#path-28"></use>
                    <rect stroke="#FFFFFF" stroke-width="1" x="53.034429" y="52.9304224" width="249" height="249" rx="32"></rect>
                </g>
            </g>
        </g>
    </g>
</svg>